<?xml version="1.0" encoding="utf-8"?>
<!-- Generator: Adobe Illustrator 19.0.0, SVG Export Plug-In . SVG Version: 6.00 Build 0)  -->
<svg version="1.1" id="Layer_1" xmlns="http://www.w3.org/2000/svg" xmlns:xlink="http://www.w3.org/1999/xlink" x="0px" y="0px"
	 viewBox="0 0 960 560" style="enable-background:new 0 0 960 560;" xml:space="preserve">
<style type="text/css">
	.st0{fill:url(#XMLID_2_);}
	.st1{fill:url(#XMLID_3_);}
	.st2{fill:url(#XMLID_4_);}
	.st3{fill:url(#XMLID_5_);}
	.st4{fill:url(#XMLID_6_);}
	.st5{fill:url(#XMLID_7_);}
</style>
<g id="XMLID_72_">
	<g id="XMLID_102_">
		<radialGradient id="XMLID_2_" cx="369.401" cy="283.8217" r="198.2444" gradientUnits="userSpaceOnUse">
			<stop  offset="0" style="stop-color:#FF68FF"/>
			<stop  offset="0.3931" style="stop-color:#D350D5"/>
			<stop  offset="0.9946" style="stop-color:#88278F"/>
		</radialGradient>
		<path id="XMLID_103_" class="st0" d="M473.3,303.2l-38.4-22l-0.2-44.3l38.2-22.3l38.4,22l0.2,44.3L473.3,303.2z M438.1,279.3
			l35.1,20.1l34.9-20.4l-0.2-40.4l-35.1-20.1L438,238.9L438.1,279.3z"/>
	</g>
	<g id="XMLID_98_">
		<radialGradient id="XMLID_3_" cx="369.401" cy="283.8217" r="198.2444" gradientUnits="userSpaceOnUse">
			<stop  offset="0" style="stop-color:#FF68FF"/>
			<stop  offset="0.3931" style="stop-color:#D350D5"/>
			<stop  offset="0.9946" style="stop-color:#88278F"/>
		</radialGradient>
		<path id="XMLID_99_" class="st1" d="M473.3,345.5l-38.4-22l-0.2-44.3l38.2-22.3l38.4,22l0.2,44.3L473.3,345.5z M438.1,321.6
			l35.1,20.1l34.9-20.4l-0.2-40.4l-35.1-20.1L438,281.1L438.1,321.6z"/>
	</g>
	<g id="XMLID_94_">
		<radialGradient id="XMLID_4_" cx="369.401" cy="283.8217" r="198.2444" gradientUnits="userSpaceOnUse">
			<stop  offset="0" style="stop-color:#FF68FF"/>
			<stop  offset="0.3931" style="stop-color:#D350D5"/>
			<stop  offset="0.9946" style="stop-color:#88278F"/>
		</radialGradient>
		<path id="XMLID_95_" class="st2" d="M509.9,367.1l-38.4-22l-0.2-44.3l38.2-22.3l38.4,22l0.2,44.3L509.9,367.1z M474.8,343.2
			l35.1,20.1l34.9-20.4l-0.2-40.4l-35.1-20.1l-34.9,20.4L474.8,343.2z"/>
	</g>
	<g id="XMLID_90_">
		<radialGradient id="XMLID_5_" cx="369.401" cy="283.8217" r="198.2444" gradientUnits="userSpaceOnUse">
			<stop  offset="0" style="stop-color:#FF68FF"/>
			<stop  offset="0.3931" style="stop-color:#D350D5"/>
			<stop  offset="0.9946" style="stop-color:#88278F"/>
		</radialGradient>
		<path id="XMLID_91_" class="st3" d="M509.9,281.5l-38.4-22l-0.2-44.3l38.2-22.3l38.4,22l0.2,44.3L509.9,281.5z M474.8,257.6
			l35.1,20.1l34.9-20.4l-0.2-40.4l-35.1-20.1l-34.9,20.4L474.8,257.6z"/>
	</g>
	<g id="XMLID_84_">
		<radialGradient id="XMLID_6_" cx="369.401" cy="283.8217" r="198.2444" gradientUnits="userSpaceOnUse">
			<stop  offset="0" style="stop-color:#FF68FF"/>
			<stop  offset="0.3931" style="stop-color:#D350D5"/>
			<stop  offset="0.9946" style="stop-color:#88278F"/>
		</radialGradient>
		<path id="XMLID_87_" class="st4" d="M436.6,367.1l-38.4-22l-0.2-44.3l38.2-22.3l38.4,22l0.2,44.3L436.6,367.1z M401.5,343.2
			l35.1,20.1l34.9-20.4l-0.2-40.4l-35.1-20.1l-34.9,20.4L401.5,343.2z"/>
	</g>
	<g id="XMLID_73_">
		<radialGradient id="XMLID_7_" cx="369.401" cy="283.8217" r="198.2444" gradientUnits="userSpaceOnUse">
			<stop  offset="0" style="stop-color:#FF68FF"/>
			<stop  offset="0.3931" style="stop-color:#D350D5"/>
			<stop  offset="0.9946" style="stop-color:#88278F"/>
		</radialGradient>
		<path id="XMLID_74_" class="st5" d="M436.6,281.5l-38.4-22l-0.2-44.3l38.2-22.3l38.4,22l0.2,44.3L436.6,281.5z M401.5,257.6
			l35.1,20.1l34.9-20.4l-0.2-40.4l-35.1-20.1l-34.9,20.4L401.5,257.6z"/>
	</g>
</g>
</svg>
